<svg width="128" height="128" viewBox="0 0 128 128" fill="none" xmlns="http://www.w3.org/2000/svg">
<path d="M64.0001 75.4001C70.2961 75.4001 75.4001 70.2961 75.4001 64.0001C75.4001 57.7041 70.2961 52.6001 64.0001 52.6001C57.7041 52.6001 52.6001 57.7041 52.6001 64.0001C52.6001 70.2961 57.7041 75.4001 64.0001 75.4001Z" fill="#45A7C2"/>
<path d="M107.3 45.2001C105.1 44.4001 102.8 43.6001 100.4 42.9001C101 40.5001 101.5 38.1001 101.9 35.8001C104 22.6001 101.7 13.3001 95.2999 9.7001C93.3999 8.6001 91.2999 8.1001 88.8999 8.1001C81.8999 8.1001 72.9999 13.3001 63.9999 22.0001C54.9999 13.3001 46.0999 8.1001 39.0999 8.1001C36.6999 8.1001 34.5999 8.6001 32.6999 9.7001C26.2999 13.4001 23.9999 22.7001 26.0999 35.8001C26.4999 38.1001 26.9999 40.5001 27.5999 42.9001C25.1999 43.6001 22.8999 44.3001 20.6999 45.2001C8.1999 50.0001 1.3999 56.6001 1.3999 64.0001C1.3999 71.4001 8.2999 78.0001 20.6999 82.8001C22.8999 83.6001 25.1999 84.4001 27.5999 85.1001C26.9999 87.5001 26.4999 89.9001 26.0999 92.2001C23.9999 105.4 26.2999 114.7 32.6999 118.3C34.5999 119.4 36.6999 119.9 39.0999 119.9C46.1999 119.9 55.0999 114.7 63.9999 106C72.9999 114.7 81.8999 119.9 88.8999 119.9C91.2999 119.9 93.3999 119.4 95.2999 118.3C101.7 114.6 104 105.3 101.9 92.2001C101.5 89.9001 101 87.5001 100.4 85.1001C102.8 84.4001 105.1 83.7001 107.3 82.8001C119.8 78.0001 126.6 71.4001 126.6 64.0001C126.6 56.6001 119.8 50.0001 107.3 45.2001ZM92.4999 14.7001C96.5999 17.1001 97.9999 24.5001 96.2999 35.0001C95.9999 37.1001 95.4999 39.3001 94.8999 41.6001C89.6999 40.4001 84.1999 39.6001 78.3999 39.1001C74.9999 34.3001 71.4999 30.0001 67.9999 26.1001C75.3999 18.8001 82.8999 13.8001 88.9999 13.8001C90.2999 13.8001 91.4999 14.1001 92.4999 14.7001ZM81.2999 74.0001C79.4999 77.2001 77.3999 80.4001 75.1999 83.6001C71.4999 83.9001 67.7999 84.0001 63.9999 84.0001C60.0999 84.0001 56.3999 83.9001 52.7999 83.6001C50.5999 80.4001 48.5999 77.2001 46.7999 74.0001C44.8999 70.7001 43.0999 67.3001 41.4999 64.0001C43.0999 60.7001 44.8999 57.3001 46.7999 54.0001C48.5999 50.8001 50.6999 47.6001 52.8999 44.4001C56.5999 44.1001 60.2999 44.0001 64.0999 44.0001C67.9999 44.0001 71.6999 44.1001 75.2999 44.4001C77.4999 47.6001 79.4999 50.8001 81.2999 54.0001C83.1999 57.3001 84.9999 60.7001 86.5999 64.0001C84.8999 67.3001 83.1999 70.6001 81.2999 74.0001ZM89.5999 70.7001C91.0999 74.2001 92.2999 77.6001 93.3999 81.0001C89.9999 81.8001 86.3999 82.4001 82.5999 82.9001C83.7999 81.0001 85.0999 79.0001 86.1999 76.9001C87.3999 74.8001 88.4999 72.7001 89.5999 70.7001ZM63.9999 97.8001C61.5999 95.2001 59.2999 92.4001 57.0999 89.5001C59.3999 89.6001 61.6999 89.7001 63.9999 89.7001C66.2999 89.7001 68.5999 89.6001 70.8999 89.5001C68.6999 92.4001 66.3999 95.2001 63.9999 97.8001ZM45.3999 82.8001C41.5999 82.3001 37.9999 81.7001 34.5999 80.9001C35.6999 77.6001 36.8999 74.1001 38.3999 70.6001C39.4999 72.6001 40.5999 74.7001 41.7999 76.7001C42.9999 78.9001 44.1999 80.8001 45.3999 82.8001ZM38.3999 57.3001C36.8999 53.8001 35.6999 50.4001 34.5999 47.0001C37.9999 46.2001 41.5999 45.6001 45.3999 45.1001C44.1999 47.0001 42.8999 49.0001 41.7999 51.1001C40.5999 53.2001 39.4999 55.3001 38.3999 57.3001ZM63.9999 30.2001C66.3999 32.8001 68.6999 35.6001 70.8999 38.5001C68.5999 38.4001 66.2999 38.3001 63.9999 38.3001C61.6999 38.3001 59.3999 38.4001 57.0999 38.5001C59.2999 35.6001 61.5999 32.8001 63.9999 30.2001ZM86.1999 51.2001L82.5999 45.2001C86.3999 45.7001 89.9999 46.3001 93.3999 47.1001C92.2999 50.4001 91.0999 53.9001 89.5999 57.4001C88.4999 55.3001 87.3999 53.2001 86.1999 51.2001ZM31.6999 35.0001C29.9999 24.5001 31.3999 17.1001 35.4999 14.7001C36.4999 14.1001 37.6999 13.8001 38.9999 13.8001C44.9999 13.8001 52.4999 18.7001 59.9999 26.1001C56.4999 29.9001 52.9999 34.3001 49.5999 39.1001C43.7999 39.6001 38.2999 40.5001 33.0999 41.6001C32.4999 39.3001 32.0999 37.1001 31.6999 35.0001ZM6.9999 64.0001C6.9999 59.3001 12.6999 54.3001 22.6999 50.6001C24.6999 49.8001 26.8999 49.1001 29.0999 48.5001C30.6999 53.5001 32.6999 58.8001 35.0999 64.1001C32.6999 69.4001 30.5999 74.6001 29.0999 79.6001C15.2999 75.6001 6.9999 69.6001 6.9999 64.0001ZM35.4999 113.3C31.3999 110.9 29.9999 103.5 31.6999 93.0001C31.9999 90.9001 32.4999 88.7001 33.0999 86.4001C38.2999 87.6001 43.7999 88.4001 49.5999 88.9001C52.9999 93.7001 56.4999 98.0001 59.9999 101.9C52.5999 109.2 45.0999 114.2 38.9999 114.2C37.6999 114.2 36.4999 113.9 35.4999 113.3ZM96.2999 93.0001C97.9999 103.5 96.5999 110.9 92.4999 113.3C91.4999 113.9 90.2999 114.2 88.9999 114.2C82.9999 114.2 75.4999 109.3 67.9999 101.9C71.4999 98.1001 74.9999 93.7001 78.3999 88.9001C84.1999 88.4001 89.6999 87.5001 94.8999 86.4001C95.4999 88.7001 95.8999 90.9001 96.2999 93.0001ZM105.3 77.4001C103.3 78.2001 101.1 78.9001 98.8999 79.5001C97.2999 74.5001 95.2999 69.2001 92.8999 63.9001C95.2999 58.6001 97.3999 53.4001 98.8999 48.4001C112.7 52.4001 121 58.4001 121 64.0001C121 68.7001 115.2 73.7001 105.3 77.4001Z" fill="#45A7C2"/>
</svg>
