<svg width="81" height="81" viewBox="0 0 81 81" fill="none" xmlns="http://www.w3.org/2000/svg">
<path fill-rule="evenodd" clip-rule="evenodd" d="M25 6.075V6.15H24.4375C23.1938 6.15 22.025 6.4 20.925 6.90625C19.8538 7.38421 18.8842 8.06314 18.0687 8.90625C16.3767 10.6331 15.4336 12.9574 15.4438 15.375C15.4438 16.7938 15.4687 18.2063 15.5187 19.6063C15.5687 21.0063 15.5687 22.3938 15.5187 23.7625C15.4945 25.1021 15.3797 26.4385 15.175 27.7625C14.9688 29.075 14.6188 30.325 14.125 31.5313C13.1505 33.8984 11.5574 35.96 9.5125 37.5C11.5574 39.04 13.1505 41.1016 14.125 43.4688C14.625 44.675 14.9688 45.9375 15.175 47.2688C15.3813 48.5563 15.4937 49.8938 15.5187 51.2688C15.5687 52.6188 15.5687 54.0063 15.5187 55.4313C15.4687 56.8063 15.4438 58.2063 15.4438 59.6313C15.4438 60.9 15.675 62.0938 16.1375 63.2125C16.6312 64.3188 17.275 65.2938 18.0687 66.1375C18.8812 66.95 19.8375 67.6188 20.925 68.1313C22.0188 68.6125 23.1938 68.85 24.4438 68.85H25V75H24.4375C22.4813 75 20.5875 74.6125 18.7563 73.8438C16.9336 73.0797 15.2856 71.9527 13.9125 70.5313C12.5762 69.1882 11.5278 67.5869 10.8313 65.825V65.8188C10.214 64.1578 9.79854 62.4288 9.59375 60.6688V60.6563C9.41615 58.8495 9.36603 57.0325 9.44375 55.2188C9.51875 53.4125 9.55625 51.6063 9.55625 49.7938C9.55625 48.5563 9.30625 47.375 8.825 46.2563V46.25C8.38265 45.1631 7.72826 44.1751 6.9 43.3438L6.8875 43.3313C6.08433 42.4826 5.11676 41.8063 4.04375 41.3438H4.0375C2.94675 40.8382 1.75845 40.578 0.55625 40.5813H0V34.4313H0.562499C1.78125 34.4313 2.9375 34.1938 4.04375 33.7125C6.19906 32.7352 7.90645 30.981 8.825 28.8V28.7875C9.3125 27.6625 9.55625 26.475 9.55625 25.2125C9.55625 23.4 9.51875 21.5875 9.44375 19.7813C9.36588 17.9821 9.416 16.1796 9.59375 14.3875V14.375C9.8 12.5813 10.2125 10.85 10.825 9.1875V9.18125C11.5234 7.41885 12.574 5.81745 13.9125 4.475C15.2832 3.05205 16.9291 1.92289 18.75 1.15625C20.5813 0.387501 22.475 1.74746e-06 24.4375 1.74746e-06H25V6.075ZM74.5188 40.575H75V34.425H74.4375C73.2188 34.425 72.0625 34.175 70.9625 33.6688L70.9563 33.6625C69.8832 33.2001 68.9156 32.5238 68.1125 31.675L68.1 31.6625C67.274 30.8306 66.6217 29.8427 66.1813 28.7563L66.175 28.7438C65.6887 27.628 65.4397 26.4234 65.4437 25.2063C65.4437 23.3938 65.4813 21.5813 65.5563 19.775C65.6339 17.9612 65.5838 16.1442 65.4062 14.3375V14.3313C65.2034 12.5715 64.79 10.8425 64.175 9.18125V9.175C63.4766 7.4126 62.426 5.8112 61.0875 4.46875C59.7144 3.04735 58.0664 1.9203 56.2438 1.15625C54.445 0.392302 52.5105 -0.000956629 50.5563 1.74746e-06H50V6.15H50.5625C51.8125 6.15 52.975 6.3875 54.075 6.86875C55.1625 7.38125 56.1125 8.04375 56.9313 8.86875C57.725 9.70625 58.3688 10.6813 58.8625 11.7875C59.325 12.9125 59.55 14.1 59.55 15.3688C59.55 16.7938 59.5313 18.1938 59.4813 19.5688C59.4313 20.9938 59.4313 22.3813 59.4813 23.725C59.5063 25.1125 59.6188 26.4438 59.825 27.725C60.0313 29.0625 60.3812 30.325 60.875 31.5313C61.849 33.8987 63.4422 35.9604 65.4875 37.5L65.2875 37.6563C68.6 38.0188 71.725 39.0375 74.5188 40.575Z" fill="#0FA3B1"/>
<path fill-rule="evenodd" clip-rule="evenodd" d="M51.661 46.7764C53.7072 45.376 56.0109 44.3955 58.4387 43.8915C60.8664 43.3874 63.37 43.37 65.8046 43.84C68.2392 44.3101 70.5563 45.2583 72.622 46.6299C74.6876 48.0015 76.4606 49.7692 77.8385 51.8306C79.2164 53.8921 80.1717 56.2063 80.6492 58.6394C81.1266 61.0726 81.1168 63.5762 80.6201 66.0055C80.1235 68.4348 79.15 70.7415 77.7559 72.792C76.3618 74.8425 74.5748 76.5961 72.4985 77.9514C68.3639 80.65 63.3318 81.609 58.4946 80.62C53.6573 79.6311 49.4053 76.7742 46.6616 72.6694C43.918 68.5646 42.9041 63.5433 43.8401 58.6955C44.7761 53.8477 47.5864 49.5647 51.661 46.7764ZM69.2422 50.7764L62.0797 57.9451L54.9172 50.7764L50.4985 55.1951L57.661 62.3639L50.4922 69.5264L54.9172 73.9514L62.0797 66.7826L69.2422 73.9451L73.6672 69.5264L66.4985 62.3639L73.6672 55.2014L69.2422 50.7764Z" fill="#DA1B2B"/>
</svg>
