<svg width="175" height="175" viewBox="0 0 175 175" fill="none" xmlns="http://www.w3.org/2000/svg">
<path fill-rule="evenodd" clip-rule="evenodd" d="M54.0123 13.125V13.287H52.797C50.1099 13.287 47.5848 13.8272 45.2083 14.9209C42.894 15.9535 40.7992 17.4203 39.0374 19.2419C35.3818 22.9728 33.3441 27.9943 33.3661 33.2176C33.3661 36.2828 33.4201 39.3345 33.5281 42.3591C33.6362 45.3838 33.6362 48.3815 33.5281 51.3387C33.4758 54.2328 33.2277 57.1201 32.7855 59.9807C32.3399 62.8163 31.5837 65.5169 30.5169 68.123C28.4115 73.2373 24.9696 77.6913 20.5517 81.0185C24.9696 84.3457 28.4115 88.7996 30.5169 93.9139C31.5972 96.52 32.3399 99.2476 32.7855 102.124C33.2311 104.905 33.4741 107.795 33.5281 110.766C33.6362 113.682 33.6362 116.68 33.5281 119.759C33.4201 122.729 33.3661 125.754 33.3661 128.833C33.3661 131.574 33.8657 134.153 34.8649 136.57C35.9317 138.96 37.3225 141.067 39.0374 142.89C40.7928 144.645 42.8588 146.09 45.2083 147.197C47.5713 148.237 50.1099 148.75 52.8105 148.75H54.0123V162.037H52.797C48.5706 162.037 44.4791 161.2 40.5227 159.539C36.5849 157.888 33.0244 155.453 30.0578 152.382C27.1708 149.481 24.9057 146.021 23.4008 142.214V142.201C22.0673 138.612 21.1697 134.877 20.7272 131.074V131.047C20.3435 127.144 20.2352 123.218 20.4031 119.3C20.5652 115.397 20.6462 111.495 20.6462 107.579C20.6462 104.905 20.1061 102.353 19.0663 99.9363V99.9227C18.1107 97.5744 16.6968 95.4399 14.9074 93.6438L14.8804 93.6168C13.1452 91.7832 11.0547 90.3222 8.73649 89.3228H8.72298C6.36644 88.2306 3.79911 87.6683 1.20177 87.6755H0V74.3884H1.21528C3.84837 74.3884 6.34645 73.8753 8.73649 72.8356C13.393 70.7242 17.0818 66.9341 19.0663 62.2222V62.1952C20.1196 59.7646 20.6462 57.199 20.6462 54.4714C20.6462 50.5555 20.5652 46.6396 20.4031 42.7372C20.2349 38.8501 20.3432 34.9559 20.7272 31.0841V31.0571C21.1728 27.1817 22.064 23.4413 23.3873 19.8495V19.836C24.8962 16.0284 27.166 12.5686 30.0578 9.66821C33.0192 6.59392 36.5751 4.15438 40.5092 2.49807C44.4656 0.837194 48.5571 3.77538e-06 52.797 3.77538e-06H54.0123V13.125ZM160.997 87.662H162.037V74.3749H160.822C158.189 74.3749 155.69 73.8348 153.314 72.7411L153.3 72.7276C150.982 71.7285 148.891 70.2674 147.156 68.4336L147.129 68.4066C145.345 66.6093 143.936 64.4749 142.984 62.1276L142.971 62.1006C141.92 59.6901 141.382 57.0874 141.391 54.4579C141.391 50.542 141.472 46.6261 141.634 42.7237C141.801 38.8051 141.693 34.8795 141.31 30.9761V30.9626C140.871 27.1606 139.978 23.4251 138.65 19.836V19.8225C137.141 16.0149 134.871 12.555 131.979 9.6547C129.013 6.58377 125.452 4.1488 121.514 2.49807C117.628 0.847566 113.449 -0.00206679 109.226 3.77538e-06H108.025V13.287H109.24C111.94 13.287 114.452 13.8001 116.829 14.8399C119.178 15.9471 121.231 17.3785 123 19.1609C124.714 20.9703 126.105 23.0768 127.172 25.4668C128.171 27.8974 128.657 30.4629 128.657 33.2041C128.657 36.2828 128.617 39.3075 128.509 42.2781C128.401 45.3568 128.401 48.3545 128.509 51.2577C128.563 54.2554 128.806 57.1315 129.251 59.8996C129.697 62.7893 130.453 65.5169 131.52 68.123C133.624 73.2379 137.066 77.6922 141.485 81.0185L141.053 81.356C148.21 82.1392 154.961 84.3402 160.997 87.662Z" fill="#0FA3B1"/>
<path fill-rule="evenodd" clip-rule="evenodd" d="M111.613 101.06C116.034 98.0346 121.011 95.9162 126.256 94.8272C131.501 93.7383 136.91 93.7005 142.17 94.716C147.43 95.7316 152.436 97.7803 156.899 100.744C161.362 103.707 165.193 107.526 168.17 111.98C171.146 116.433 173.21 121.433 174.242 126.69C175.273 131.947 175.252 137.356 174.179 142.604C173.106 147.853 171.003 152.836 167.991 157.267C164.979 161.697 161.118 165.485 156.632 168.413C147.7 174.244 136.828 176.316 126.377 174.179C115.926 172.042 106.74 165.87 100.812 157.002C94.8845 148.133 92.694 137.285 94.7162 126.811C96.7384 116.338 102.81 107.084 111.613 101.06ZM149.597 109.702L134.123 125.19L118.648 109.702L109.102 119.249L124.576 134.737L109.088 150.211L118.648 159.771L134.123 144.283L149.597 159.758L159.157 150.211L143.669 134.737L159.157 119.262L149.597 109.702Z" fill="#DA1B2B"/>
</svg>
